<svg xmlns="http://www.w3.org/2000/svg" xmlns:xlink="http://www.w3.org/1999/xlink" width="757" height="488" viewBox="0 0 757 488"><defs><clipPath id="a"><rect width="757" height="488" transform="translate(0 2011)" fill="none" stroke="none"/></clipPath></defs><g transform="translate(0 -2011)" clip-path="url(#a)"><g transform="translate(-581.691 1832.14)"><g transform="translate(439.543 369.771)"><path d="M660.131,880.574,596.143,843.63V772.3L564.46,754.005,503.031,789.47l-.25-.144-63.738-36.8V678.639l.25-.144,63.238-36.51v-33.2l-63.488-36.655V498.242l.25-.144,63.738-36.8,63.942,36.917L597.311,480.7l-1.169-.675V406.137l63.988-36.944,63.988,36.944v73.887l-.432.25,31.027,17.914V496.74l.25-.144L818.7,459.8l.25.144,63.738,36.8v73.887l-.25.144L819.2,607.282v36.2l63.488,36.655v73.888l-.25.144-63.738,36.8-.25-.144-62.479-36.072-31.855,18.392V843.63l-.25.144Zm-62.988-37.521,62.988,36.366,62.988-36.366V773.725l-62.252,35.941-.236-.137v69.145h-1V808.952l-62.488-36.078Zm63.513-34.663.211.122,62.252-35.941v-.244Zm-63.513-37.218,62.988,36.366,62.988-36.366v-.852l-62.988-36.366L597.143,770.32Zm159.831-16.993L818.7,789.817l62.988-36.366V682.725L819.2,718.8v70.27h-1V718.828Zm-316.931-2.229,62.988,36.366,60.428-34.888-59.928-34.6v68.742h-1V717.3l-62.488-36.077ZM660.131,732.8l63.988,36.944v2.25l30.855-17.814-.26-.15V681.6L722.686,663.1l-62.556,36.117-61.819-35.692L567.02,681.6v70.931l-1.56.9,30.683,17.715v-1.4Zm95.583,20.653.26.15,61.251-35.363-61.511-35.513ZM504.031,717.962l60.428,34.888,1.56-.9V682.173ZM819.2,644.641v73.007l62.488-36.077v-.852Zm-63.488,36.377L818.2,717.1V644.641l-62.488,36.077ZM503.531,643.139v73.007l62.488-36.077v-.852Zm-63.488,36.93,62.488,36.077V643.139l-62.488,36.077Zm159.268-17.117,60.819,35.114,61.556-35.539-60.819-35.114-.236.136v69.773h-1v-69.2Zm124.375-.425,31.028,17.914v-.3l.25-.144,63.238-36.51v-36.2l-63.488-36.655V499.343l-32.027-18.491-62.556,36.117-61.819-35.692L567.02,499.343v72.787l-.25.144-63.238,36.51v33.2l63.488,36.655v1.8l30.292-17.489-1.169-.675V588.39l63.988-36.943.25.144,63.738,36.8v73.887ZM597.143,661.7l1.169.675,61.256-35.366-62.425-37.447Zm64.273-35.125,61.271,35.375.433-.25V589.562Zm-63.787-37.888,62.5,37.493,62.5-37.493-62.5-36.086Zm-94.1,16.985v1.957l62.488-36.077V500.826L503.531,536.9Zm-63.488-34.12,62.488,36.077V536.9l-62.488-36.078ZM819.2,604.17v1.957l62.488-36.077V499.324L819.2,535.4Zm-63.488-34.12L818.2,606.128V536L755.714,499.92ZM440.043,499.671l62.488,36.078v-.328l.25-.144,63.192-36.484-62.942-36.34-62.988,36.367ZM818.67,535.113h.032l-.25-.433,63.238-36.511v-.852L818.7,460.951l-62.988,36.367v1.448ZM660.631,445.3v70.229l61.056-35.251-60.82-35.114Zm-61.319,35.4,60.319,34.826V445.874Zm-2.169-1.252,1.169.675,61.25-35.363-62.419-36.038Zm64.294-35.113,61.25,35.363.432-.25V408.721Zm-64.294-36.767,62.988,36.367,62.988-36.367v-.852l-62.988-36.366-62.988,36.366Z" transform="translate(-439.543 -369.771)" fill="#008080"/></g></g><g transform="translate(-139.043 1651.14)"><g transform="translate(439.543 369.771)"><path d="M660.131,880.574,596.143,843.63V771.972l-31.5-18.074L503.031,789.47l-.25-.144-63.738-36.8V678.639l.25-.144,63.238-36.51v-33.2l-63.488-36.655V498.242l.25-.144,63.738-36.8,63.942,36.917L597.311,480.7l-1.169-.675V406.137l63.988-36.944,63.988,36.944v73.887l-.432.25,31.027,17.914V496.74l.25-.144L818.7,459.8l.25.144,63.738,36.8v73.887l-.25.144L819.2,607.282v36.2l63.488,36.655v73.888l-.25.144-63.738,36.8-.25-.144-62.963-36.351-31.37,17.835V843.63l-.25.144Zm-62.988-37.521,62.988,36.366,62.988-36.366V772.88l-62.488,35.527v70.268h-1V808.405l-62.488-35.859Zm0-71.881,62.99,36.368,62.974-35.8-62.981-37.78L597.143,770.32ZM756.5,753.9,818.7,789.817l62.988-36.366V682.725L819.2,718.8v70.27h-1V718.822Zm-316.454-1.954,62.988,36.366,60.612-34.994-60.112-34.5v68.745h-1V717.3l-62.488-36.077ZM660.135,732.8l.252.151L724.1,771.169l30.609-17.4V681.6L722.686,663.1,660.132,699.22l-.249-.143-61.851-35.386L567.02,681.6v70.931l-1.372.792,30.495,17.5v-1.076Zm95.579-50.071V753.2l61.5-34.965Zm-251.68,35.236,60.611,34.782,1.375-.794V682.173ZM819.2,644.641v73.007l62.488-36.077v-.852Zm-63.488,36.377L818.2,717.1V644.641l-62.488,36.077ZM503.531,717.012v.084l61.557-35.54-61.557-38.382Zm-63.488-36.943,62.488,36.077V643.139l-62.488,36.077Zm158.99-16.956,61.1,34.954,61.557-35.54-60.819-35.114-.236.136v69.773h-1v-69.2ZM503.531,642l62.539,38.994,30.956-17.873-.149-.085,0-.287-.735-74.353,63.991-36.945.25.144,63.738,36.8v73.887l-.433.25,31.028,17.914v-.3l.25-.144,63.238-36.51v-36.2l-63.488-36.655V499.343l-32.027-18.491-62.556,36.117-61.819-35.692L567.02,499.343v72.787l-.25.144-63.238,36.51Zm94.34,20.452.157.09,61.539-35.53-62.416-37.441Zm63.564-35.861,61.25,35.363.433-.25V590.974Zm-63.807-37.9,62.507,37.5,62.984-36.363v-.852L660.131,552.6Zm-94.1,16.985v1.957l62.488-36.077V500.826L503.531,536.9Zm-63.488-34.12,62.488,36.077V536.9l-62.488-36.078ZM819.2,604.17v1.957l62.488-36.077V499.324L819.2,535.4Zm-63.488-34.12L818.2,606.128V536L755.714,499.92ZM440.043,499.671l62.488,36.078v-.328l.25-.144,63.192-36.484-62.942-36.34-62.988,36.367Zm315.671-1.5L818.7,534.536l62.988-36.367v-.852L818.7,460.951l-62.988,36.367ZM660.631,445.3v70.229l61.056-35.251-60.82-35.114Zm-61.319,35.4,60.319,34.826V445.874Zm-2.169-1.252,1.169.675,61.25-35.363-62.419-36.038Zm64.294-35.113,61.25,35.363.432-.25V408.721Zm-64.294-36.767,62.988,36.367,62.988-36.367v-.852l-62.988-36.366-62.988,36.366Z" transform="translate(-439.543 -369.771)" fill="#008080"/></g></g></g></svg>