<svg xmlns="http://www.w3.org/2000/svg" viewBox="0 0 800 800" role="img" aria-label="WhatsApp">
  <defs>
    <linearGradient id="buttonFace" x1="107" x2="694" y1="106" y2="694">
      <stop offset="0" stop-color="#51ef4d"/>
      <stop offset=".36" stop-color="#32cf25"/>
      <stop offset=".74" stop-color="#2fc724"/>
      <stop offset="1" stop-color="#24a81f"/>
    </linearGradient>
    <linearGradient id="buttonEdge" x1="77" x2="724" y1="84" y2="720">
      <stop offset="0" stop-color="#9cff95"/>
      <stop offset=".22" stop-color="#44db3e"/>
      <stop offset=".78" stop-color="#1cae1f"/>
      <stop offset="1" stop-color="#138016"/>
    </linearGradient>
    <radialGradient id="shine" cx="28%" cy="18%" r="72%">
      <stop offset="0" stop-color="#ffffff" stop-opacity=".46"/>
      <stop offset=".24" stop-color="#ffffff" stop-opacity=".16"/>
      <stop offset=".72" stop-color="#ffffff" stop-opacity="0"/>
    </radialGradient>
    <filter id="buttonShadow" x="-12%" y="-12%" width="124%" height="124%">
      <feDropShadow dx="0" dy="22" stdDeviation="22" flood-color="#09260a" flood-opacity=".36"/>
      <feDropShadow dx="-5" dy="-7" stdDeviation="8" flood-color="#c6ffc1" flood-opacity=".34"/>
    </filter>
    <filter id="innerShade" x="-8%" y="-8%" width="116%" height="116%">
      <feDropShadow dx="0" dy="8" stdDeviation="7" flood-color="#0d7a13" flood-opacity=".38"/>
      <feDropShadow dx="0" dy="-5" stdDeviation="5" flood-color="#efffed" flood-opacity=".3"/>
    </filter>
    <filter id="markShadow" x="-12%" y="-12%" width="124%" height="124%">
      <feDropShadow dx="0" dy="10" stdDeviation="7" flood-color="#07600d" flood-opacity=".46"/>
    </filter>
  </defs>
  <rect x="69" y="65" width="662" height="662" rx="94" fill="url(#buttonEdge)" filter="url(#buttonShadow)"/>
  <rect x="94" y="90" width="612" height="612" rx="78" fill="url(#buttonFace)" filter="url(#innerShade)"/>
  <rect x="111" y="106" width="578" height="578" rx="66" fill="url(#shine)" opacity=".78"/>
  <path fill="#fff" filter="url(#markShadow)" d="M399.9 155.7c-134.7 0-244.4 107.7-244.4 240.2 0 43.4 12.1 85.6 35.1 122.8l-32.8 120.9 124.9-32.1a246.9 246.9 0 0 0 117.2 29.5c134.7 0 244.3-108.1 244.3-241.1S534.6 155.7 399.9 155.7Zm0 430.4a196.4 196.4 0 0 1-99.4-27.1l-7.2-4.2-74.1 19 19.6-71.8-4.7-7.5a188.7 188.7 0 0 1-28.9-98.6c0-104.4 87.4-189.4 194.7-189.4s194.7 85 194.7 189.4-87.4 190.2-194.7 190.2Z"/>
  <path fill="#fff" filter="url(#markShadow)" d="M513.9 443.7c-6.2-3-36.8-17.9-42.4-19.9-5.7-2.1-9.8-3-13.8 3-4.1 6-15.8 19.9-19.4 23.9-3.6 4-7.2 4.5-13.3 1.5-6.2-3-26-9.5-49.5-30-18.3-15.9-30.7-35.7-34.3-41.7-3.6-6-0.4-9.3 2.7-12.3 2.8-2.7 6.2-7 9.2-10.5 3.1-3.5 4.1-6 6.2-10 2.1-4 1-7.5-0.5-10.5-1.5-3-13.8-33.2-19-45.3-5-11.8-10.1-10.2-13.8-10.4l-11.8-.2c-4.1 0-10.8 1.5-16.4 7.5-5.7 6-21.6 20.9-21.6 51s22.1 59.1 25.1 63.1c3.1 4 43.7 66.1 105.9 92.7 14.8 6.3 26.4 10.1 35.4 12.9 14.9 4.6 28.4 4 39.1 2.4 11.9-1.8 36.8-14.8 42-29.2 5.1-14.4 5.1-26.7 3.6-29.2-1.5-2.4-5.6-3.9-11.8-6.9Z"/>
  <path d="M130 150c16-28 45-44 82-44h364c38 0 67 16 84 45" fill="none" stroke="#dbffd8" stroke-width="16" stroke-linecap="round" opacity=".42"/>
</svg>
